<svg width="25" height="26" viewBox="0 0 25 26" fill="none" xmlns="http://www.w3.org/2000/svg">
<path d="M17.4761 5.11195L22.2775 0.306021C22.9307 -0.347712 24.0475 0.11529 24.0475 1.03989V13.882C24.0474 9.71656 20.7522 7.18325 17.4761 5.11195Z" fill="#FF7236"/>
<path d="M24.0475 13.8822C24.0475 20.3403 18.8171 25.5756 12.3651 25.5756C5.91307 25.5756 0.682617 20.3402 0.682617 13.8822C0.682617 7.4242 5.91298 2.91968 12.3651 2.91968C18.8172 2.91968 24.0475 7.42412 24.0475 13.8822Z" fill="#FFAA50"/>
<path d="M7.25381 13.882C7.25381 8.2538 10.4825 4.11194 14.782 3.13975C14.0017 2.99645 13.1939 2.91946 12.3649 2.91946C10.2151 2.91946 8.20765 3.42899 6.47737 4.33479L2.45235 0.306021C1.79922 -0.347712 0.682373 0.11529 0.682373 1.03989V13.882C0.682373 13.6184 0.682373 13.6198 0.682373 13.882C0.682373 20.3401 5.91282 25.5754 12.3648 25.5754C13.1939 25.5754 14.0017 25.486 14.7819 25.3217C10.4825 24.2069 7.25381 19.5101 7.25381 13.882Z" fill="#FF7236"/>
<path d="M9.80942 21.1902C11.2208 21.1902 12.3649 20.2085 12.3649 18.9977C12.3649 17.7868 11.2208 16.8052 9.80942 16.8052C8.39805 16.8052 7.25391 17.7868 7.25391 18.9977C7.25391 20.2085 8.39805 21.1902 9.80942 21.1902Z" fill="#FFFDFB"/>
<path d="M14.9207 21.1902C16.3321 21.1902 17.4763 20.2085 17.4763 18.9977C17.4763 17.7868 16.3321 16.8052 14.9207 16.8052C13.5094 16.8052 12.3652 17.7868 12.3652 18.9977C12.3652 20.2085 13.5094 21.1902 14.9207 21.1902Z" fill="#FFFDFB"/>
<path d="M12.3651 18.9983C13.1716 18.9983 13.8254 18.3439 13.8254 17.5366C13.8254 16.7294 13.1716 16.075 12.3651 16.075C11.5586 16.075 10.9048 16.7294 10.9048 17.5366C10.9048 18.3439 11.5586 18.9983 12.3651 18.9983Z" fill="#FF913C"/>
<path d="M7.98403 14.6128C7.58043 14.6128 7.25391 14.2856 7.25391 13.882V13.1512C7.25391 12.7476 7.58051 12.4204 7.98403 12.4204C8.38755 12.4204 8.71415 12.7476 8.71415 13.1512V13.882C8.71415 14.2856 8.38755 14.6128 7.98403 14.6128Z" fill="#1A212F"/>
<path d="M16.7457 14.6128C16.3421 14.6128 16.0156 14.2856 16.0156 13.882V13.1512C16.0156 12.7476 16.3422 12.4204 16.7457 12.4204C17.1493 12.4204 17.4759 12.7476 17.4759 13.1512V13.882C17.476 14.2856 17.1493 14.6128 16.7457 14.6128Z" fill="#1A212F"/>
</svg>
