<svg width="21" height="18" viewBox="0 0 21 18" fill="none" xmlns="http://www.w3.org/2000/svg">
<path d="M16.8031 6.52453C13.8387 8.22469 14.3435 13.1874 17.5591 13.1874C18.9459 13.1874 20.1462 12.1448 20.6806 10.8119C21.9148 7.73355 19.3483 5.06432 16.8031 6.52453Z" fill="#FFFEFD"/>
<path d="M13.7586 7.1392C17.3154 7.1392 18.3804 1.09929 15.0012 0.106307C13.4617 -0.345957 11.711 0.739227 11.1487 2.72296C10.5178 4.9464 11.759 7.1392 13.7586 7.1392Z" fill="#FFFEFD"/>
<path d="M12.8437 17.8903C12.3497 17.7537 11.4731 17.6658 10.5555 17.6531C9.58548 17.6389 8.56994 17.7084 7.91287 17.8903C6.13821 18.3847 3.72345 17.1886 4.25328 14.7045C4.74335 12.408 6.50419 12.5389 6.92059 10.3625C7.34014 8.16298 8.97058 7.10147 10.5555 7.18444C12.0223 7.26144 13.4499 8.31922 13.8389 10.363C14.2529 12.5409 16.0101 12.4088 16.4994 14.7045C17.0312 17.1906 14.6113 18.3802 12.8437 17.8903Z" fill="#FFFEFD"/>
<path d="M7.49868 7.13932C8.50476 7.13932 9.36882 6.55499 9.84896 5.66068C11.2763 3.00141 8.93207 -0.680001 6.2558 0.10841C2.87084 1.10414 3.94382 7.13932 7.49868 7.13932Z" fill="#FFFEFD"/>
<path d="M5.89088 11.21C7.03294 8.41567 4.32588 5.00238 1.74048 6.07635C-1.37377 7.36985 -0.000238334 12.9488 3.42401 12.9488C4.52293 12.9488 5.45679 12.2723 5.89088 11.21Z" fill="#FFFEFD"/>
<path d="M12.8437 17.8902C12.3497 17.7536 11.473 17.6657 10.5554 17.6529V7.18433C12.0223 7.26132 13.4498 8.3191 13.8388 10.3629C14.2528 12.5407 16.01 12.4087 16.4994 14.7044C17.0311 17.1905 14.6113 18.3801 12.8437 17.8902Z" fill="#FFFEFD"/>
</svg>
