<svg width="75" height="61" viewBox="0 0 75 61" fill="none" xmlns="http://www.w3.org/2000/svg">
<g filter="url(#filter0_d)">
<path d="M13.8994 48.4825C13.8188 47.5104 13.2384 46.5545 11.6424 46.4735C12.6258 46.3438 13.98 44.0756 13.3996 42.3906C12.916 41.0297 11.4651 41.5644 10.6107 41.8236C10.4495 43.1197 10.8202 45.5014 9.38546 45.8092C9.32097 45.1287 9.44994 43.9946 9.27261 42.8119C8.93406 40.8515 6.54812 41.7588 6 42.0018C6.20958 44.1728 6.17733 44.7561 6.17733 47.3646C6.19345 48.2556 6.09673 49.6652 6.17733 50.4267C6.40303 52.4519 8.80509 51.9172 9.46606 51.2205C9.46606 50.3619 9.44994 48.6121 9.40158 47.64C10.4656 47.559 10.659 47.8668 10.6913 50.135C10.7074 52.4033 13.3835 51.982 14.1735 51.2043C13.8994 50.3619 13.98 49.2925 13.8994 48.4825Z" fill="#1A212F"/>
<path d="M15.298 46.8137C15.298 51.5122 17.7162 51.901 19.409 51.8524C20.9727 51.8524 23.536 51.415 23.5521 46.8137C23.536 42.8767 21.7949 41.4834 19.4573 41.4834C16.9908 41.4834 15.298 43.0063 15.298 46.8137ZM19.4573 44.1242C19.6347 44.1242 20.3117 43.865 20.3117 46.7003C20.3117 48.5473 20.0216 49.6004 19.4412 49.6004C18.9576 49.6004 18.5707 49.1629 18.619 46.7003C18.619 44.4645 19.1833 44.1242 19.4573 44.1242Z" fill="#1A212F"/>
<path d="M26.8692 44.4645C26.8692 45.388 26.8531 46.4087 26.9014 49.5518C26.9175 50.8155 26.9659 51.8524 28.4168 51.82C29.7065 51.82 30.0289 51.3016 30.174 51.1395C30.2224 49.73 30.1257 46.6517 30.0934 44.5131C30.4481 44.5131 30.7866 44.5131 31.0929 44.4969C32.1247 44.4645 32.4794 43.8488 32.4632 42.9901C32.4471 42.018 31.6572 41.4996 30.5609 41.4996H27.4979C25.0636 41.5158 24.9024 41.5158 24.7089 41.4996C24.2575 43.4114 24.5316 44.4321 26.3855 44.4645H26.8692Z" fill="#1A212F"/>
<path d="M39.1037 41.5644C37.9752 41.451 35.2507 41.4996 33.3645 41.5806C33.5741 43.7354 33.5902 46.5059 33.558 48.4663C33.5902 50.3457 33.429 51.658 35.3958 51.7876C36.6855 51.8848 37.411 51.8848 38.5717 51.7876C40.1516 51.658 40.7964 50.7993 40.0387 48.9199C38.7329 49.1143 37.5238 49.1629 36.7661 49.0171C36.7661 48.7903 36.7339 48.0774 36.7661 47.8992C37.4916 47.8992 38.2815 47.8668 38.9747 47.8668C40.4095 47.8668 40.2644 45.55 38.9586 45.55C38.0236 45.5014 37.6044 45.5986 36.7339 45.5176V44.2376C37.7173 44.1566 38.1525 44.2052 38.9747 44.2376C40.5224 44.2862 40.5224 41.8884 39.1037 41.5644Z" fill="#1A212F"/>
<path d="M44.1396 38.0324C43.0756 38.7291 43.14 39.7822 43.8977 40.414C44.7522 41.0297 46.4288 40.8353 47.5573 40.333C48.589 39.8632 48.992 38.7939 47.8958 38C46.2676 38.8587 45.1874 38.4212 44.1396 38.0324ZM49.8787 42.9415C49.8787 41.9694 49.2661 41.4996 48.2988 41.4996C47.1703 41.4996 46.59 41.7912 46.2514 42.8281C45.8484 44.0918 45.2519 46.036 44.9134 47.3808C44.9134 46.7975 45.0101 43.3627 45.0101 42.9415C45.0101 41.8722 44.4459 41.4996 43.4947 41.4996C42.8337 41.4996 41.6569 41.9208 41.6569 41.9208C41.7536 42.6499 41.8342 43.0711 41.8503 44.027C41.8826 45.0315 41.8503 46.6355 41.9471 49.811C41.9954 51.3664 42.4952 51.8848 43.7526 51.8362C46.0096 51.7552 46.1547 47.5752 46.7673 46.0522C46.7673 46.7489 46.7351 49.1629 46.7351 49.973C46.7351 51.0747 46.8318 51.8362 48.1054 51.8362C49.2016 51.8362 49.8303 51.4636 50.0238 51.1233C49.8948 50.6373 49.8465 47.6886 49.8465 45.3718C49.8465 44.351 49.8626 43.46 49.8787 42.9415Z" fill="#1A212F"/>
<path d="M59.2183 48.4825C59.1377 47.5104 58.5574 46.5545 56.9614 46.4735C57.9447 46.3438 59.2989 44.0756 58.7186 42.3906C58.2349 41.0297 56.784 41.5644 55.9296 41.8236C55.7684 43.1197 56.1392 45.5014 54.7044 45.8092C54.6399 45.1287 54.7689 43.9946 54.5915 42.8119C54.253 40.8515 51.867 41.7588 51.3189 42.0018C51.5285 44.1728 51.4963 44.7561 51.4963 47.3646C51.5124 48.2556 51.4156 49.6652 51.4963 50.4267C51.7219 52.4519 54.124 51.9172 54.785 51.2205C54.785 50.3619 54.7689 48.6121 54.7205 47.64C55.7845 47.559 55.978 47.8668 56.0102 50.135C56.0263 52.4033 58.7024 51.982 59.4924 51.2043C59.2183 50.3619 59.2989 49.2925 59.2183 48.4825Z" fill="#1A212F"/>
<path d="M69 51.1395C68.7743 50.5077 68.7904 50.1998 68.7421 49.2925C68.6131 46.9271 68.5808 44.6427 67.807 43.0711C66.5012 40.7543 63.1319 41.3861 61.5036 42.5527C61.3585 45.3555 60.8749 46.5059 60.5686 49.6328C60.3429 51.9172 62.2452 52.5491 64.0185 51.4312C64.0185 51.1557 64.0185 50.1998 64.0991 49.973C64.3087 49.973 65.0987 49.9892 65.405 49.9892C65.405 49.9892 65.3244 50.9289 65.7758 51.4312C66.5818 52.3547 68.4358 52.0792 69 51.1395ZM64.212 47.9478C64.3248 47.0729 64.3248 45.2583 64.3732 44.8695C64.4538 44.8047 65.0019 44.8371 65.0664 44.9181C65.2599 45.6796 65.2599 47.0729 65.3082 47.9478H64.212Z" fill="#1A212F"/>
<path d="M9.87045 44.6506C9.86982 44.7323 9.86899 44.8106 9.8682 44.8858C9.86535 45.1561 9.86293 45.3856 9.87124 45.5808C10.5008 45.0684 10.5298 43.892 10.5553 42.8582C10.5646 42.4813 10.5734 42.1234 10.6107 41.8236L9.87045 44.6506ZM9.87045 44.6506C9.91692 44.4985 9.95313 44.3214 9.9801 44.1205C10.0294 43.7531 10.0428 43.3499 10.0531 42.9373C10.054 42.905 10.0548 42.8725 10.0556 42.8399C10.0646 42.4706 10.074 42.0878 10.1145 41.7619L10.1546 41.4395L10.4655 41.3451C10.5083 41.3322 10.5543 41.3178 10.6033 41.3026C11.0015 41.1787 11.591 40.9953 12.148 40.9996C12.4741 41.0021 12.8274 41.067 13.1469 41.2686C13.4728 41.4744 13.7182 41.7939 13.8708 42.2232L13.8724 42.2278L13.8724 42.2278C14.2212 43.2407 13.9791 44.3725 13.5565 45.2353C13.3714 45.613 13.1427 45.959 12.8904 46.2407C13.2104 46.3794 13.48 46.5678 13.7004 46.7981C14.1533 47.2714 14.3497 47.8708 14.3973 48.437C14.4242 48.7092 14.4347 49.025 14.4449 49.3318C14.4503 49.495 14.4556 49.6556 14.4632 49.8058C14.4869 50.2704 14.5332 50.6938 14.6489 51.0497L14.7446 51.3437L14.5242 51.5607C14.2525 51.8282 13.8579 52.0331 13.4478 52.1615C13.0316 52.2918 12.5535 52.3579 12.0899 52.3092C11.626 52.2603 11.145 52.0919 10.7763 51.7207C10.4012 51.343 10.1964 50.8097 10.1913 50.1404C10.1833 49.5772 10.1653 49.1537 10.129 48.8332C10.0917 48.505 10.0396 48.3315 9.9914 48.2404C9.96598 48.1924 9.94692 48.1742 9.92275 48.163C9.95489 49.161 9.96606 50.5041 9.96606 51.2205V51.42L9.82879 51.5647C9.59249 51.8137 9.24156 52.0128 8.87529 52.1453C8.50222 52.2804 8.06719 52.3634 7.63572 52.3438C7.20422 52.3241 6.74633 52.1995 6.37247 51.8864C5.99051 51.5666 5.74859 51.0938 5.68041 50.482L5.6801 50.4793L5.68011 50.4793C5.6359 50.0616 5.6413 49.4868 5.65327 48.9334C5.65621 48.7973 5.65957 48.662 5.66287 48.5291C5.67341 48.1042 5.68337 47.7029 5.67742 47.3736L5.67725 47.3646H5.67733C5.67733 47.0304 5.67786 46.7298 5.67833 46.4552C5.68158 44.5833 5.68273 43.9188 5.50231 42.0499L5.46766 41.6909L5.79734 41.5447C6.08608 41.4167 6.8952 41.0946 7.70631 41.0806C8.11664 41.0736 8.57764 41.1442 8.97313 41.4082C9.3846 41.6829 9.66122 42.124 9.76532 42.7268L9.7672 42.7377L9.76708 42.7378C9.8615 43.3675 9.87339 43.9771 9.87135 44.5008C9.87115 44.552 9.87084 44.6019 9.87045 44.6506ZM32.9632 42.9813C32.9525 42.3451 32.6803 41.8259 32.2162 41.4796C31.7681 41.1452 31.1805 40.9996 30.5609 40.9996L27.4979 40.9995L27.4946 40.9996C25.0387 41.0159 24.9145 41.015 24.7507 41.0013L24.3213 40.9653L24.2223 41.3847C23.9963 42.3421 23.9048 43.2348 24.2336 43.9066C24.5989 44.6529 25.3703 44.9452 26.3681 44.9642C26.3681 44.9726 26.3681 44.9809 26.3681 44.9893C26.3654 45.8289 26.3618 46.9836 26.4015 49.5595L26.4015 49.5612C26.4091 50.1596 26.418 50.8551 26.6691 51.3858C26.8057 51.6745 27.0174 51.9272 27.3332 52.0973C27.6395 52.2621 28.0055 52.3286 28.4223 52.32C29.1325 52.3193 29.6242 52.1756 29.9744 51.9737C30.2794 51.7978 30.4565 51.5822 30.5244 51.4995C30.5339 51.4879 30.5412 51.479 30.5465 51.4731L30.6675 51.338L30.6737 51.1567C30.7086 50.1397 30.6691 48.2672 30.632 46.5086C30.6211 45.9914 30.6104 45.484 30.6018 45.0112C30.7777 45.0092 30.9499 45.005 31.1142 44.9964C31.7274 44.9761 32.2279 44.7762 32.5591 44.3687C32.879 43.9751 32.9723 43.4703 32.9632 42.9813ZM32.9632 42.9813C32.9632 42.9815 32.9632 42.9816 32.9632 42.9818L32.4632 42.9901L32.9632 42.9807C32.9632 42.9809 32.9632 42.9811 32.9632 42.9813ZM39.1847 41.07L39.215 41.0769C40.2231 41.3072 40.6716 42.2574 40.6514 43.0535C40.641 43.462 40.511 43.8874 40.2233 44.2156C39.9248 44.5562 39.4885 44.754 38.959 44.7374L38.955 44.7373C38.801 44.7312 38.6618 44.7247 38.5313 44.7185C38.0794 44.6974 37.7322 44.6811 37.2339 44.7053V45.0479C37.4354 45.0539 37.6183 45.0508 37.8098 45.0461C37.8388 45.0454 37.8681 45.0446 37.8977 45.0438C38.1988 45.0361 38.5322 45.0276 38.9725 45.05C39.9934 45.0582 40.469 45.9689 40.4941 46.691C40.5073 47.0716 40.41 47.4826 40.1568 47.8104C39.8919 48.1534 39.4842 48.3668 38.9747 48.3668C38.6376 48.3668 38.2759 48.3746 37.9033 48.3827L37.8933 48.3829C37.6818 48.3875 37.4669 48.3921 37.2533 48.3952C37.2535 48.4071 37.2537 48.4191 37.2539 48.4311C37.2548 48.4788 37.2559 48.5288 37.257 48.5789C37.9387 48.6374 38.9007 48.5838 39.9651 48.4254L40.355 48.3673L40.5024 48.733C40.8983 49.7148 40.9963 50.5869 40.6168 51.2565C40.23 51.939 39.4616 52.2161 38.6134 52.2859L39.1847 41.07ZM39.1847 41.07L39.1537 41.0669M39.1847 41.07L39.1537 41.0669M39.1537 41.0669C37.9834 40.9493 35.2227 41.0003 33.3431 41.081L32.8158 41.1037M39.1537 41.0669L32.8158 41.1037M32.8158 41.1037L32.8669 41.629M32.8158 41.1037L32.8669 41.629M32.8669 41.629C33.0736 43.7547 33.0902 46.5021 33.0581 48.458L33.0579 48.4664M32.8669 41.629L33.0579 48.4664M33.0579 48.4664L33.0581 48.4748M33.0579 48.4664L33.0581 48.4748M33.0581 48.4748C33.0605 48.6169 33.0618 48.7599 33.0631 48.9017M33.0581 48.4748L33.0631 48.9017M44.0768 37.4758L44.3135 37.5636L44.3687 37.5841C44.8845 37.7757 45.336 37.9434 45.8418 37.9858C46.3454 38.0279 46.9275 37.9454 47.6626 37.5577L47.9374 37.4128L48.1891 37.595C48.8547 38.0771 49.1584 38.7276 49.0131 39.3945C48.8766 40.0204 48.374 40.5105 47.7645 40.7881L47.7606 40.7899C47.1409 41.0656 46.3795 41.2545 45.6505 41.2921C45.3127 41.3095 44.9626 41.2954 44.628 41.2328C44.7379 41.2897 44.8418 41.359 44.9378 41.4428C45.345 41.7981 45.5101 42.3228 45.5101 42.9415C45.5101 43.0325 45.5059 43.2541 45.4992 43.5522C45.597 43.2377 45.6904 42.9417 45.7751 42.6762L45.7761 42.6729C45.9672 42.0875 46.2529 41.6352 46.7165 41.3494C47.1641 41.0734 47.7046 40.9996 48.2988 40.9996C48.856 40.9996 49.3847 41.1344 49.7801 41.4791C50.1867 41.8337 50.3787 42.3457 50.3787 42.9415V42.9493L50.3785 42.957C50.3625 43.4697 50.3465 44.3556 50.3465 45.3718C50.3465 46.5275 50.3585 47.8393 50.3866 48.9211C50.4006 49.4625 50.4186 49.9427 50.4408 50.3157C50.4643 50.7113 50.4903 50.9319 50.5071 50.9951L50.5595 51.1927L50.4585 51.3705C50.134 51.9411 49.2758 52.3362 48.1054 52.3362C47.7412 52.3362 47.417 52.2824 47.141 52.1524C46.855 52.0177 46.6469 51.8135 46.5062 51.5617C46.251 51.1051 46.2353 50.51 46.2351 49.986C46.0465 50.5095 45.8058 51.0164 45.4806 51.4242C45.0722 51.9363 44.5141 52.309 43.7712 52.3359C43.771 52.3359 43.7708 52.3359 43.7706 52.3359L44.0768 37.4758ZM44.0768 37.4758L43.8657 37.6141C43.2305 38.03 42.8683 38.6 42.8362 39.2217C42.8045 39.8357 43.1006 40.4003 43.5775 40.798L43.5911 40.8094L43.6054 40.8197C43.7205 40.9026 43.8442 40.9729 43.9744 41.032C43.8171 41.009 43.656 40.9996 43.4947 40.9996C43.0889 40.9996 42.5707 41.1232 42.1934 41.2286C41.9962 41.2837 41.8212 41.3386 41.6956 41.3798C41.6326 41.4004 41.5816 41.4177 41.546 41.4299L41.5045 41.4443L41.4931 41.4484L41.4899 41.4495L41.4889 41.4499L41.4886 41.45L41.4885 41.45C41.4884 41.45 41.4884 41.45 41.6569 41.9208L44.0768 37.4758ZM55.1894 44.6507C55.2358 44.4985 55.2721 44.3214 55.299 44.1205C55.3483 43.7531 55.3617 43.3499 55.3721 42.9373C55.3729 42.9049 55.3737 42.8724 55.3745 42.8398C55.3835 42.4706 55.3929 42.0877 55.4334 41.7619L55.4735 41.4395L55.7844 41.3451C55.8272 41.3322 55.8732 41.3178 55.9222 41.3026C56.3205 41.1787 56.9099 40.9953 57.4669 40.9996C57.7931 41.0021 58.1463 41.067 58.4658 41.2686C58.7918 41.4744 59.0371 41.7939 59.1897 42.2232L59.1913 42.2278C59.5402 43.2407 59.2981 44.3725 58.8754 45.2353C58.6904 45.613 58.4616 45.959 58.2093 46.2407C58.5293 46.3794 58.7989 46.5678 59.0193 46.7981C59.4722 47.2714 59.6686 47.8709 59.7163 48.437C59.7431 48.7093 59.7536 49.0251 59.7638 49.3318C59.7692 49.495 59.7745 49.6556 59.7822 49.8058C59.8059 50.2704 59.8521 50.6938 59.9679 51.0497L60.0635 51.3437L59.8432 51.5607C59.5714 51.8282 59.1768 52.0331 58.7667 52.1615C58.3506 52.2918 57.8724 52.3579 57.4088 52.3092C56.9449 52.2603 56.4639 52.0919 56.0952 51.7207C55.7202 51.3431 55.5155 50.81 55.5102 50.141M55.1894 44.6507L55.2213 47.6442C55.2289 47.8007 55.2356 47.9758 55.2417 48.163M55.1894 44.6507C55.1898 44.6019 55.1901 44.552 55.1903 44.5008C55.1923 43.9771 55.1804 43.3675 55.086 42.7378L55.0861 42.7377L55.0842 42.7268C54.9801 42.124 54.7035 41.6829 54.2921 41.4082C53.8966 41.1442 53.4356 41.0736 53.0252 41.0806C52.2141 41.0946 51.405 41.4167 51.1163 41.5447L50.7866 41.6909L50.8212 42.0499C51.0016 43.9188 51.0005 44.5833 50.9972 46.4552C50.9968 46.7298 50.9963 47.0304 50.9963 47.3646H50.9962L50.9963 47.3736C51.0023 47.7029 50.9923 48.1042 50.9818 48.5291C50.9785 48.662 50.9751 48.7973 50.9722 48.9334C50.9602 49.4868 50.9548 50.0616 50.999 50.4793L50.9993 50.482C51.0675 51.0938 51.3094 51.5666 51.6914 51.8864C52.0652 52.1995 52.5231 52.3241 52.9546 52.3438C53.3861 52.3634 53.8211 52.2804 54.1942 52.1453C54.5605 52.0128 54.9114 51.8137 55.1477 51.5647L55.285 51.42V51.2205C55.285 50.5041 55.2738 49.161 55.2417 48.163M55.1894 44.6507L54.7205 47.6401L54.7585 48.1385C55.0141 48.1191 55.1446 48.1311 55.2164 48.1537C55.2256 48.1566 55.2339 48.1594 55.2417 48.163M55.5102 50.141C55.5102 50.1402 55.5102 50.1394 55.5102 50.1386L56.0102 50.135L55.5102 50.1421C55.5102 50.1418 55.5102 50.1414 55.5102 50.141ZM55.5102 50.141C55.5022 49.5775 55.4842 49.1538 55.4479 48.8332C55.4107 48.505 55.3585 48.3315 55.3103 48.2404C55.2849 48.1924 55.2658 48.1742 55.2417 48.163M33.0631 48.9017C33.0659 49.2095 33.0686 49.5117 33.0828 49.7857M33.0631 48.9017L33.0828 49.7857M33.0828 49.7857C33.1038 50.1899 33.151 50.5933 33.2813 50.9532M33.0828 49.7857L33.2813 50.9532M33.2813 50.9532C33.4163 51.3264 33.6422 51.6573 34.0106 51.8972M33.2813 50.9532L34.0106 51.8972M34.0106 51.8972C34.3681 52.1301 34.8189 52.2504 35.3605 52.2864M34.0106 51.8972L35.3605 52.2864M35.3605 52.2864C36.6723 52.3852 37.4243 52.3854 38.6134 52.2859L35.3605 52.2864ZM16.3991 51.4977C17.3592 52.2958 18.5423 52.3769 19.4161 52.3524C20.2307 52.3518 21.4046 52.2399 22.3771 51.4458C23.3705 50.6347 24.0437 49.2063 24.0521 46.8154L24.0521 46.8117C24.0438 44.7799 23.5912 43.3103 22.7529 42.3444C21.9033 41.3656 20.7276 40.9834 19.4573 40.9834C18.1176 40.9834 16.9221 41.4011 16.0725 42.3961C15.2343 43.3776 14.798 44.8457 14.798 46.8137C14.798 49.239 15.4227 50.686 16.3991 51.4977ZM19.1189 46.7101L19.119 46.7101V46.7003C19.119 45.6106 19.2587 45.0551 19.386 44.7905C19.4359 44.6868 19.4756 44.6413 19.4965 44.6232C19.5111 44.6224 19.5235 44.6214 19.5313 44.6208C19.5321 44.6221 19.533 44.6234 19.5339 44.6247C19.5767 44.6895 19.6505 44.8479 19.7108 45.1888C19.7703 45.5247 19.8117 46.0087 19.8117 46.7003C19.8117 47.6085 19.7392 48.2768 19.6144 48.7021C19.5516 48.9159 19.4862 49.0302 19.4416 49.0825C19.4347 49.0907 19.4293 49.0962 19.4255 49.0999C19.4135 49.0991 19.4079 49.0976 19.4067 49.0973C19.4066 49.0972 19.4076 49.0979 19.4064 49.097C19.4032 49.0945 19.3563 49.0571 19.3007 48.9035C19.1834 48.5797 19.0949 47.9352 19.1189 46.7101ZM19.5128 44.6127C19.5129 44.6132 19.5099 44.6154 19.5032 44.6178C19.5093 44.6133 19.5126 44.6121 19.5128 44.6127ZM19.4179 49.1062C19.4179 49.1062 19.4183 49.1059 19.4192 49.1054L19.4179 49.1062ZM69.4287 51.3969L69.5504 51.1941L69.4709 50.9713C69.302 50.4987 69.2908 50.2675 69.2588 49.6126C69.2538 49.5086 69.2482 49.394 69.2414 49.2659L69.2413 49.2653C69.2279 49.0188 69.2154 48.7715 69.203 48.5244C69.1565 47.601 69.1103 46.6817 69.0132 45.8276C68.89 44.7446 68.6804 43.7131 68.2556 42.8502L68.2494 42.8377L68.2426 42.8256C67.4714 41.4572 66.095 40.9901 64.7704 41.0057C63.4568 41.0211 62.1082 41.5045 61.2124 42.1462L61.0167 42.2864L61.0043 42.5268C60.9333 43.8991 60.7799 44.865 60.6038 45.8863C60.5876 45.9804 60.5712 46.075 60.5546 46.1704C60.3906 47.1158 60.212 48.1446 60.071 49.5836C59.9435 50.8742 60.42 51.8466 61.3372 52.2631C62.2091 52.659 63.3095 52.4692 64.2852 51.8541L64.5185 51.707V51.4312C64.5185 51.2932 64.5186 50.993 64.5283 50.7006C64.5309 50.6234 64.5341 50.5485 64.538 50.4784C64.5701 50.4789 64.603 50.4794 64.6364 50.4799L64.7081 50.4811C64.7764 50.4821 64.8459 50.4832 64.9143 50.4842C64.9172 50.5161 64.9207 50.5488 64.9248 50.5823C64.9649 50.9116 65.0737 51.3963 65.4015 51.7627C65.948 52.3865 66.7999 52.5629 67.534 52.481C68.2638 52.3995 69.0396 52.0448 69.4287 51.3969ZM64.7791 47.2725C64.7813 47.3315 64.7835 47.39 64.7857 47.4478H64.7606C64.7663 47.366 64.7715 47.2818 64.7763 47.1963C64.7767 47.2079 64.7772 47.2194 64.7776 47.2309L64.7791 47.2725Z" stroke="black"/>
</g>
<path d="M44.9998 6.99531L51.5757 0.418766C52.4702 -0.475816 53.9998 0.157766 53.9998 1.423V18.9964C53.9997 13.2963 49.4867 9.82971 44.9998 6.99531Z" fill="#FF7236"/>
<path d="M53.9999 18.9966C53.9999 27.834 46.8364 34.998 38 34.998C29.1636 34.998 22.0001 27.8339 22.0001 18.9966C22.0001 10.1593 29.1634 3.99524 38 3.99524C46.8366 3.99524 53.9999 10.1592 53.9999 18.9966Z" fill="#FFAA50"/>
<path d="M30.9999 18.9964C30.9999 11.2947 35.4218 5.62687 41.3102 4.29649C40.2416 4.1004 39.1353 3.99505 37.9999 3.99505C35.0556 3.99505 32.3063 4.6923 29.9365 5.93182L24.424 0.418766C23.5295 -0.475816 21.9999 0.157766 21.9999 1.423V18.9964C21.9999 18.6377 21.9999 18.6357 21.9999 18.9964C21.9999 27.8338 29.1633 34.9978 37.9998 34.9978C39.1353 34.9978 40.2416 34.8756 41.3101 34.6508C35.4218 33.1252 30.9999 26.6981 30.9999 18.9964Z" fill="#FF7236"/>
<path d="M34.4998 28.9973C36.4328 28.9973 37.9998 27.6541 37.9998 25.9971C37.9998 24.3401 36.4328 22.9968 34.4998 22.9968C32.5669 22.9968 30.9999 24.3401 30.9999 25.9971C30.9999 27.6541 32.5669 28.9973 34.4998 28.9973Z" fill="#FFFDFB"/>
<path d="M41.5001 28.9973C43.4331 28.9973 45.0001 27.6541 45.0001 25.9971C45.0001 24.3401 43.4331 22.9968 41.5001 22.9968C39.5672 22.9968 38.0002 24.3401 38.0002 25.9971C38.0002 27.6541 39.5672 28.9973 41.5001 28.9973Z" fill="#FFFDFB"/>
<path d="M38.0001 25.9977C39.1047 25.9977 40.0001 25.1022 40.0001 23.9975C40.0001 22.8928 39.1047 21.9973 38.0001 21.9973C36.8955 21.9973 36.0001 22.8928 36.0001 23.9975C36.0001 25.1022 36.8955 25.9977 38.0001 25.9977Z" fill="#FF913C"/>
<path d="M32.0001 19.9965C31.4473 19.9965 31.0001 19.5487 31.0001 18.9964V17.9964C31.0001 17.4441 31.4474 16.9963 32.0001 16.9963C32.5527 16.9963 33 17.4441 33 17.9964V18.9964C33 19.5487 32.5527 19.9965 32.0001 19.9965Z" fill="#1A212F"/>
<path d="M43.9999 19.9965C43.4471 19.9965 42.9999 19.5487 42.9999 18.9964V17.9964C42.9999 17.4441 43.4472 16.9963 43.9999 16.9963C44.5526 16.9963 44.9998 17.4441 44.9998 17.9964V18.9964C44.9999 19.5487 44.5526 19.9965 43.9999 19.9965Z" fill="#1A212F"/>
<defs>
<filter id="filter0_d" x="0.935333" y="36.8256" width="73.1656" height="24.174" filterUnits="userSpaceOnUse" color-interpolation-filters="sRGB">
<feFlood flood-opacity="0" result="BackgroundImageFix"/>
<feColorMatrix in="SourceAlpha" type="matrix" values="0 0 0 0 0 0 0 0 0 0 0 0 0 0 0 0 0 0 127 0"/>
<feOffset dy="4"/>
<feGaussianBlur stdDeviation="2"/>
<feColorMatrix type="matrix" values="0 0 0 0 0 0 0 0 0 0 0 0 0 0 0 0 0 0 0.25 0"/>
<feBlend mode="normal" in2="BackgroundImageFix" result="effect1_dropShadow"/>
<feBlend mode="normal" in="SourceGraphic" in2="effect1_dropShadow" result="shape"/>
</filter>
</defs>
</svg>
